<svg xmlns="http://www.w3.org/2000/svg" xmlns:xlink="http://www.w3.org/1999/xlink" width="925" height="552" viewBox="0 0 925 552">
  <defs>
    <clipPath id="clip-Web_1920_8">
      <rect width="925" height="552"/>
    </clipPath>
  </defs>
  <g id="Web_1920_8" data-name="Web 1920 – 8" clip-path="url(#clip-Web_1920_8)">
    <g id="Group_3" data-name="Group 3" transform="translate(-252 137.68)">
      <g id="Group_1" data-name="Group 1" transform="translate(0 -276)">
        <g id="Tile" transform="translate(0 138.051)">
          <path id="_6_hoek" data-name="6 hoek" d="M75,0l25,45L75,90H25L0,45,25,0Z" transform="translate(0 46.27)" fill="#f0f3f4"/>
          <path id="_6_hoek-2" data-name="6 hoek" d="M75,0l25,45L75,90H25L0,45,25,0Z" transform="translate(77 92.27)" fill="#f0f3f4"/>
          <path id="_6_hoek-3" data-name="6 hoek" d="M75,0l25,45L75,90H25L0,45,25,0Z" transform="translate(0 138.27)" fill="#f0f3f4"/>
          <path id="_6_hoek-4" data-name="6 hoek" d="M75,0l25,45L75,90H25L0,45,25,0Z" transform="translate(77 0.27)" fill="#f0f3f4"/>
          <path id="_6_hoek-5" data-name="6 hoek" d="M75,0l25,45L75,90H25L0,45,25,0Z" transform="translate(154 46.27)" fill="#f0f3f4"/>
          <path id="_6_hoek-6" data-name="6 hoek" d="M75,0l25,45L75,90H25L0,45,25,0Z" transform="translate(154 138.27)" fill="#f0f3f4"/>
          <path id="_6_hoek-7" data-name="6 hoek" d="M75,0l25,45L75,90H25L0,45,25,0Z" transform="translate(77 184.27)" fill="#f0f3f4"/>
        </g>
        <g id="Tile-2" data-name="Tile" transform="translate(0 414.152)">
          <path id="_6_hoek-8" data-name="6 hoek" d="M75,0l25,45L75,90H25L0,45,25,0Z" transform="translate(0 46.168)" fill="#f0f3f4"/>
          <path id="_6_hoek-9" data-name="6 hoek" d="M75,0l25,45L75,90H25L0,45,25,0Z" transform="translate(77 92.168)" fill="#f0f3f4"/>
          <path id="_6_hoek-10" data-name="6 hoek" d="M75,0l25,45L75,90H25L0,45,25,0Z" transform="translate(0 138.168)" fill="#f0f3f4"/>
          <path id="_6_hoek-11" data-name="6 hoek" d="M75,0l25,45L75,90H25L0,45,25,0Z" transform="translate(77 0.168)" fill="#f0f3f4"/>
          <path id="_6_hoek-12" data-name="6 hoek" d="M75,0l25,45L75,90H25L0,45,25,0Z" transform="translate(154 46.168)" fill="#f0f3f4"/>
          <path id="_6_hoek-13" data-name="6 hoek" d="M75,0l25,45L75,90H25L0,45,25,0Z" transform="translate(154 138.168)" fill="#f0f3f4"/>
          <path id="_6_hoek-14" data-name="6 hoek" d="M75,0l25,45L75,90H25L0,45,25,0Z" transform="translate(77 184.168)" fill="#f0f3f4"/>
        </g>
        <g id="Tile-3" data-name="Tile" transform="translate(231.085 276.101)">
          <path id="_6_hoek-15" data-name="6 hoek" d="M75,0l25,45L75,90H25L0,45,25,0Z" transform="translate(-0.085 46.219)" fill="#f0f3f4"/>
          <path id="_6_hoek-16" data-name="6 hoek" d="M75,0l25,45L75,90H25L0,45,25,0Z" transform="translate(76.915 92.219)" fill="#f0f3f4"/>
          <path id="_6_hoek-17" data-name="6 hoek" d="M75,0l25,45L75,90H25L0,45,25,0Z" transform="translate(-0.085 138.219)" fill="#f0f3f4"/>
          <path id="_6_hoek-18" data-name="6 hoek" d="M75,0l25,45L75,90H25L0,45,25,0Z" transform="translate(76.915 0.219)" fill="#f0f3f4"/>
          <path id="_6_hoek-19" data-name="6 hoek" d="M75,0l25,45L75,90H25L0,45,25,0Z" transform="translate(153.915 46.219)" fill="#f0f3f4"/>
          <path id="_6_hoek-20" data-name="6 hoek" d="M75,0l25,45L75,90H25L0,45,25,0Z" transform="translate(153.915 138.219)" fill="#f0f3f4"/>
          <path id="_6_hoek-21" data-name="6 hoek" d="M75,0l25,45L75,90H25L0,45,25,0Z" transform="translate(76.915 184.219)" fill="#f0f3f4"/>
        </g>
        <g id="Tile-4" data-name="Tile" transform="translate(231.085)">
          <path id="_6_hoek-22" data-name="6 hoek" d="M75,0l25,45L75,90H25L0,45,25,0Z" transform="translate(-0.085 46.32)" fill="#f0f3f4"/>
          <path id="_6_hoek-23" data-name="6 hoek" d="M75,0l25,45L75,90H25L0,45,25,0Z" transform="translate(76.915 92.32)" fill="#f0f3f4"/>
          <path id="_6_hoek-24" data-name="6 hoek" d="M75,0l25,45L75,90H25L0,45,25,0Z" transform="translate(-0.085 138.32)" fill="#f0f3f4"/>
          <path id="_6_hoek-25" data-name="6 hoek" d="M75,0l25,45L75,90H25L0,45,25,0Z" transform="translate(76.915 0.32)" fill="#f0f3f4"/>
          <path id="_6_hoek-26" data-name="6 hoek" d="M75,0l25,45L75,90H25L0,45,25,0Z" transform="translate(153.915 46.32)" fill="#f0f3f4"/>
          <path id="_6_hoek-27" data-name="6 hoek" d="M75,0l25,45L75,90H25L0,45,25,0Z" transform="translate(153.915 138.32)" fill="#f0f3f4"/>
          <path id="_6_hoek-28" data-name="6 hoek" d="M75,0l25,45L75,90H25L0,45,25,0Z" transform="translate(76.915 184.32)" fill="#f0f3f4"/>
        </g>
        <g id="Tile-5" data-name="Tile" transform="translate(231.085 552.203)">
          <path id="_6_hoek-29" data-name="6 hoek" d="M75,0l25,45L75,90H25L0,45,25,0Z" transform="translate(-0.085 46.118)" fill="#f0f3f4"/>
          <path id="_6_hoek-30" data-name="6 hoek" d="M75,0l25,45L75,90H25L0,45,25,0Z" transform="translate(76.915 92.118)" fill="#f0f3f4"/>
          <path id="_6_hoek-31" data-name="6 hoek" d="M75,0l25,45L75,90H25L0,45,25,0Z" transform="translate(-0.085 138.118)" fill="#f0f3f4"/>
          <path id="_6_hoek-32" data-name="6 hoek" d="M75,0l25,45L75,90H25L0,45,25,0Z" transform="translate(76.915 0.118)" fill="#f0f3f4"/>
          <path id="_6_hoek-33" data-name="6 hoek" d="M75,0l25,45L75,90H25L0,45,25,0Z" transform="translate(153.915 46.118)" fill="#f0f3f4"/>
          <path id="_6_hoek-34" data-name="6 hoek" d="M75,0l25,45L75,90H25L0,45,25,0Z" transform="translate(153.915 138.118)" fill="#f0f3f4"/>
          <path id="_6_hoek-35" data-name="6 hoek" d="M75,0l25,45L75,90H25L0,45,25,0Z" transform="translate(76.915 184.118)" fill="#f0f3f4"/>
        </g>
        <g id="Tile-6" data-name="Tile" transform="translate(462.17 138.051)">
          <path id="_6_hoek-36" data-name="6 hoek" d="M75,0l25,45L75,90H25L0,45,25,0Z" transform="translate(-0.17 46.27)" fill="#f0f3f4"/>
          <path id="_6_hoek-37" data-name="6 hoek" d="M75,0l25,45L75,90H25L0,45,25,0Z" transform="translate(76.83 92.27)" fill="#f0f3f4"/>
          <path id="_6_hoek-38" data-name="6 hoek" d="M75,0l25,45L75,90H25L0,45,25,0Z" transform="translate(-0.17 138.27)" fill="#f0f3f4"/>
          <path id="_6_hoek-39" data-name="6 hoek" d="M75,0l25,45L75,90H25L0,45,25,0Z" transform="translate(76.83 0.27)" fill="#f0f3f4"/>
          <path id="_6_hoek-40" data-name="6 hoek" d="M75,0l25,45L75,90H25L0,45,25,0Z" transform="translate(153.83 46.27)" fill="#f0f3f4"/>
          <path id="_6_hoek-41" data-name="6 hoek" d="M75,0l25,45L75,90H25L0,45,25,0Z" transform="translate(153.83 138.27)" fill="#f0f3f4"/>
          <path id="_6_hoek-42" data-name="6 hoek" d="M75,0l25,45L75,90H25L0,45,25,0Z" transform="translate(76.83 184.27)" fill="#f0f3f4"/>
        </g>
        <g id="Tile-7" data-name="Tile" transform="translate(462.17 414.152)">
          <path id="_6_hoek-43" data-name="6 hoek" d="M75,0l25,45L75,90H25L0,45,25,0Z" transform="translate(-0.17 46.168)" fill="#f0f3f4"/>
          <path id="_6_hoek-44" data-name="6 hoek" d="M75,0l25,45L75,90H25L0,45,25,0Z" transform="translate(76.83 92.168)" fill="#f0f3f4"/>
          <path id="_6_hoek-45" data-name="6 hoek" d="M75,0l25,45L75,90H25L0,45,25,0Z" transform="translate(-0.17 138.168)" fill="#f0f3f4"/>
          <path id="_6_hoek-46" data-name="6 hoek" d="M75,0l25,45L75,90H25L0,45,25,0Z" transform="translate(76.83 0.168)" fill="#f0f3f4"/>
          <path id="_6_hoek-47" data-name="6 hoek" d="M75,0l25,45L75,90H25L0,45,25,0Z" transform="translate(153.83 46.168)" fill="#f0f3f4"/>
          <path id="_6_hoek-48" data-name="6 hoek" d="M75,0l25,45L75,90H25L0,45,25,0Z" transform="translate(153.83 138.168)" fill="#f0f3f4"/>
          <path id="_6_hoek-49" data-name="6 hoek" d="M75,0l25,45L75,90H25L0,45,25,0Z" transform="translate(76.83 184.168)" fill="#f0f3f4"/>
        </g>
        <path id="_6_hoek-50" data-name="6 hoek" d="M75,0l25,45L75,90H25L0,45,25,0Z" transform="translate(0 368.32)" fill="#f0f3f4"/>
        <path id="_6_hoek-51" data-name="6 hoek" d="M75,0l25,45L75,90H25L0,45,25,0Z" transform="translate(154 368.32)" fill="#f0f3f4"/>
        <path id="_6_hoek-52" data-name="6 hoek" d="M75,0l25,45L75,90H25L0,45,25,0Z" transform="translate(231 506.32)" fill="#f0f3f4"/>
        <path id="_6_hoek-53" data-name="6 hoek" d="M75,0l25,45L75,90H25L0,45,25,0Z" transform="translate(385 506.32)" fill="#f0f3f4"/>
        <path id="_6_hoek-54" data-name="6 hoek" d="M75,0l25,45L75,90H25L0,45,25,0Z" transform="translate(462 368.32)" fill="#f0f3f4"/>
        <path id="_6_hoek-55" data-name="6 hoek" d="M75,0l25,45L75,90H25L0,45,25,0Z" transform="translate(385 230.32)" fill="#f0f3f4"/>
        <path id="_6_hoek-56" data-name="6 hoek" d="M75,0l25,45L75,90H25L0,45,25,0Z" transform="translate(231 230.32)" fill="#f0f3f4"/>
        <path id="_6_hoek-57" data-name="6 hoek" d="M75,0l25,45L75,90H25L0,45,25,0Z" transform="translate(154 92.32)" fill="#f0f3f4"/>
        <path id="_6_hoek-58" data-name="6 hoek" d="M75,0l25,45L75,90H25L0,45,25,0Z" transform="translate(0 92.32)" fill="#f0f3f4"/>
        <path id="_6_hoek-59" data-name="6 hoek" d="M75,0l25,45L75,90H25L0,45,25,0Z" transform="translate(0 644.32)" fill="#f0f3f4"/>
        <path id="_6_hoek-60" data-name="6 hoek" d="M75,0l25,45L75,90H25L0,45,25,0Z" transform="translate(154 644.32)" fill="#f0f3f4"/>
        <path id="_6_hoek-61" data-name="6 hoek" d="M75,0l25,45L75,90H25L0,45,25,0Z" transform="translate(462 644.32)" fill="#f0f3f4"/>
        <path id="_6_hoek-62" data-name="6 hoek" d="M75,0l25,45L75,90H25L0,45,25,0Z" transform="translate(616 644.32)" fill="#f0f3f4"/>
        <path id="_6_hoek-63" data-name="6 hoek" d="M75,0l25,45L75,90H25L0,45,25,0Z" transform="translate(616 368.32)" fill="#f0f3f4"/>
        <path id="_6_hoek-64" data-name="6 hoek" d="M75,0l25,45L75,90H25L0,45,25,0Z" transform="translate(462 92.32)" fill="#f0f3f4"/>
        <path id="_6_hoek-65" data-name="6 hoek" d="M75,0l25,45L75,90H25L0,45,25,0Z" transform="translate(616 92.32)" fill="#f0f3f4"/>
      </g>
      <g id="Group_2" data-name="Group 2" transform="translate(693.255 -229.983)">
        <g id="Tile-8" data-name="Tile" transform="translate(0 138.051)">
          <path id="_6_hoek-66" data-name="6 hoek" d="M75,0l25,45L75,90H25L0,45,25,0Z" transform="translate(-0.255 46.253)" fill="#f0f3f4"/>
          <path id="_6_hoek-67" data-name="6 hoek" d="M75,0l25,45L75,90H25L0,45,25,0Z" transform="translate(76.745 92.253)" fill="#f0f3f4"/>
          <path id="_6_hoek-68" data-name="6 hoek" d="M75,0l25,45L75,90H25L0,45,25,0Z" transform="translate(-0.255 138.253)" fill="#f0f3f4"/>
          <path id="_6_hoek-69" data-name="6 hoek" d="M75,0l25,45L75,90H25L0,45,25,0Z" transform="translate(76.745 0.253)" fill="#f0f3f4"/>
          <path id="_6_hoek-70" data-name="6 hoek" d="M75,0l25,45L75,90H25L0,45,25,0Z" transform="translate(153.745 46.253)" fill="#f0f3f4"/>
          <path id="_6_hoek-71" data-name="6 hoek" d="M75,0l25,45L75,90H25L0,45,25,0Z" transform="translate(153.745 138.253)" fill="#f0f3f4"/>
          <path id="_6_hoek-72" data-name="6 hoek" d="M75,0l25,45L75,90H25L0,45,25,0Z" transform="translate(76.745 184.253)" fill="#f0f3f4"/>
        </g>
        <g id="Tile-9" data-name="Tile" transform="translate(0 414.152)">
          <path id="_6_hoek-73" data-name="6 hoek" d="M75,0l25,45L75,90H25L0,45,25,0Z" transform="translate(-0.255 46.151)" fill="#f0f3f4"/>
          <path id="_6_hoek-74" data-name="6 hoek" d="M75,0l25,45L75,90H25L0,45,25,0Z" transform="translate(76.745 92.151)" fill="#f0f3f4"/>
          <path id="_6_hoek-75" data-name="6 hoek" d="M75,0l25,45L75,90H25L0,45,25,0Z" transform="translate(-0.255 138.151)" fill="#f0f3f4"/>
          <path id="_6_hoek-76" data-name="6 hoek" d="M75,0l25,45L75,90H25L0,45,25,0Z" transform="translate(76.745 0.151)" fill="#f0f3f4"/>
          <path id="_6_hoek-77" data-name="6 hoek" d="M75,0l25,45L75,90H25L0,45,25,0Z" transform="translate(153.745 46.151)" fill="#f0f3f4"/>
          <path id="_6_hoek-78" data-name="6 hoek" d="M75,0l25,45L75,90H25L0,45,25,0Z" transform="translate(153.745 138.151)" fill="#f0f3f4"/>
          <path id="_6_hoek-79" data-name="6 hoek" d="M75,0l25,45L75,90H25L0,45,25,0Z" transform="translate(76.745 184.151)" fill="#f0f3f4"/>
        </g>
        <g id="Tile-10" data-name="Tile" transform="translate(231.085 276.101)">
          <path id="_6_hoek-80" data-name="6 hoek" d="M75,0l25,45L75,90H25L0,45,25,0Z" transform="translate(-0.339 46.202)" fill="#f0f3f4"/>
          <path id="_6_hoek-81" data-name="6 hoek" d="M75,0l25,45L75,90H25L0,45,25,0Z" transform="translate(76.661 92.202)" fill="#f0f3f4"/>
          <path id="_6_hoek-82" data-name="6 hoek" d="M75,0l25,45L75,90H25L0,45,25,0Z" transform="translate(-0.339 138.202)" fill="#f0f3f4"/>
          <path id="_6_hoek-83" data-name="6 hoek" d="M75,0l25,45L75,90H25L0,45,25,0Z" transform="translate(76.661 0.202)" fill="#f0f3f4"/>
          <path id="_6_hoek-84" data-name="6 hoek" d="M75,0l25,45L75,90H25L0,45,25,0Z" transform="translate(153.661 46.202)" fill="#f0f3f4"/>
          <path id="_6_hoek-85" data-name="6 hoek" d="M75,0l25,45L75,90H25L0,45,25,0Z" transform="translate(153.661 138.202)" fill="#f0f3f4"/>
          <path id="_6_hoek-86" data-name="6 hoek" d="M75,0l25,45L75,90H25L0,45,25,0Z" transform="translate(76.661 184.202)" fill="#f0f3f4"/>
        </g>
        <g id="Tile-11" data-name="Tile" transform="translate(231.085 0)">
          <path id="_6_hoek-87" data-name="6 hoek" d="M75,0l25,45L75,90H25L0,45,25,0Z" transform="translate(-0.339 46.303)" fill="#f0f3f4"/>
          <path id="_6_hoek-88" data-name="6 hoek" d="M75,0l25,45L75,90H25L0,45,25,0Z" transform="translate(76.661 92.303)" fill="#f0f3f4"/>
          <path id="_6_hoek-89" data-name="6 hoek" d="M75,0l25,45L75,90H25L0,45,25,0Z" transform="translate(-0.339 138.303)" fill="#f0f3f4"/>
          <path id="_6_hoek-90" data-name="6 hoek" d="M75,0l25,45L75,90H25L0,45,25,0Z" transform="translate(76.661 0.303)" fill="#f0f3f4"/>
          <path id="_6_hoek-91" data-name="6 hoek" d="M75,0l25,45L75,90H25L0,45,25,0Z" transform="translate(153.661 46.303)" fill="#f0f3f4"/>
          <path id="_6_hoek-92" data-name="6 hoek" d="M75,0l25,45L75,90H25L0,45,25,0Z" transform="translate(153.661 138.303)" fill="#f0f3f4"/>
          <path id="_6_hoek-93" data-name="6 hoek" d="M75,0l25,45L75,90H25L0,45,25,0Z" transform="translate(76.661 184.303)" fill="#f0f3f4"/>
        </g>
        <g id="Tile-12" data-name="Tile" transform="translate(231.085 552.203)">
          <path id="_6_hoek-94" data-name="6 hoek" d="M75,0l25,45L75,90H25L0,45,25,0Z" transform="translate(-0.339 46.101)" fill="#f0f3f4"/>
          <path id="_6_hoek-95" data-name="6 hoek" d="M75,0l25,45L75,90H25L0,45,25,0Z" transform="translate(76.661 92.101)" fill="#f0f3f4"/>
          <path id="_6_hoek-96" data-name="6 hoek" d="M75,0l25,45L75,90H25L0,45,25,0Z" transform="translate(-0.339 138.101)" fill="#f0f3f4"/>
          <path id="_6_hoek-97" data-name="6 hoek" d="M75,0l25,45L75,90H25L0,45,25,0Z" transform="translate(76.661 0.101)" fill="#f0f3f4"/>
          <path id="_6_hoek-98" data-name="6 hoek" d="M75,0l25,45L75,90H25L0,45,25,0Z" transform="translate(153.661 46.101)" fill="#f0f3f4"/>
          <path id="_6_hoek-99" data-name="6 hoek" d="M75,0l25,45L75,90H25L0,45,25,0Z" transform="translate(153.661 138.101)" fill="#f0f3f4"/>
          <path id="_6_hoek-100" data-name="6 hoek" d="M75,0l25,45L75,90H25L0,45,25,0Z" transform="translate(76.661 184.101)" fill="#f0f3f4"/>
        </g>
        <g id="Tile-13" data-name="Tile" transform="translate(462.17 138.051)">
          <path id="_6_hoek-101" data-name="6 hoek" d="M75,0l25,45L75,90H25L0,45,25,0Z" transform="translate(-0.424 46.253)" fill="#f0f3f4"/>
          <path id="_6_hoek-102" data-name="6 hoek" d="M75,0l25,45L75,90H25L0,45,25,0Z" transform="translate(76.576 92.253)" fill="#f0f3f4"/>
          <path id="_6_hoek-103" data-name="6 hoek" d="M75,0l25,45L75,90H25L0,45,25,0Z" transform="translate(-0.424 138.253)" fill="#f0f3f4"/>
          <path id="_6_hoek-104" data-name="6 hoek" d="M75,0l25,45L75,90H25L0,45,25,0Z" transform="translate(76.576 0.253)" fill="#f0f3f4"/>
          <path id="_6_hoek-105" data-name="6 hoek" d="M75.75,0,101,45,75.75,90H25.25L0,45,25.25,0Z" transform="translate(153.576 46.253)" fill="#f0f3f4"/>
          <path id="_6_hoek-106" data-name="6 hoek" d="M75.75,0,101,45,75.75,90H25.25L0,45,25.25,0Z" transform="translate(153.576 138.253)" fill="#f0f3f4"/>
          <path id="_6_hoek-107" data-name="6 hoek" d="M75,0l25,45L75,90H25L0,45,25,0Z" transform="translate(76.576 184.253)" fill="#f0f3f4"/>
        </g>
        <g id="Tile-14" data-name="Tile" transform="translate(462.17 414.152)">
          <path id="_6_hoek-108" data-name="6 hoek" d="M75,0l25,45L75,90H25L0,45,25,0Z" transform="translate(-0.424 46.151)" fill="#f0f3f4"/>
          <path id="_6_hoek-109" data-name="6 hoek" d="M75,0l25,45L75,90H25L0,45,25,0Z" transform="translate(76.576 92.151)" fill="#f0f3f4"/>
          <path id="_6_hoek-110" data-name="6 hoek" d="M75,0l25,45L75,90H25L0,45,25,0Z" transform="translate(-0.424 138.151)" fill="#f0f3f4"/>
          <path id="_6_hoek-111" data-name="6 hoek" d="M75,0l25,45L75,90H25L0,45,25,0Z" transform="translate(76.576 0.151)" fill="#f0f3f4"/>
          <path id="_6_hoek-112" data-name="6 hoek" d="M75.75,0,101,45,75.75,90H25.25L0,45,25.25,0Z" transform="translate(153.576 46.151)" fill="#f0f3f4"/>
          <path id="_6_hoek-113" data-name="6 hoek" d="M75.75,0,101,45,75.75,90H25.25L0,45,25.25,0Z" transform="translate(153.576 138.151)" fill="#f0f3f4"/>
          <path id="_6_hoek-114" data-name="6 hoek" d="M75,0l25,45L75,90H25L0,45,25,0Z" transform="translate(76.576 184.151)" fill="#f0f3f4"/>
        </g>
        <path id="_6_hoek-115" data-name="6 hoek" d="M75,0l25,45L75,90H25L0,45,25,0Z" transform="translate(-0.255 368.303)" fill="#f0f3f4"/>
        <path id="_6_hoek-116" data-name="6 hoek" d="M75,0l25,45L75,90H25L0,45,25,0Z" transform="translate(153.745 368.303)" fill="#f0f3f4"/>
        <path id="_6_hoek-117" data-name="6 hoek" d="M75,0l25,45L75,90H25L0,45,25,0Z" transform="translate(230.745 506.303)" fill="#f0f3f4"/>
        <path id="_6_hoek-118" data-name="6 hoek" d="M75,0l25,45L75,90H25L0,45,25,0Z" transform="translate(384.745 506.303)" fill="#f0f3f4"/>
        <path id="_6_hoek-119" data-name="6 hoek" d="M75,0l25,45L75,90H25L0,45,25,0Z" transform="translate(461.746 368.303)" fill="#f0f3f4"/>
        <path id="_6_hoek-120" data-name="6 hoek" d="M75,0l25,45L75,90H25L0,45,25,0Z" transform="translate(384.745 230.303)" fill="#f0f3f4"/>
        <path id="_6_hoek-121" data-name="6 hoek" d="M75,0l25,45L75,90H25L0,45,25,0Z" transform="translate(230.745 230.303)" fill="#f0f3f4"/>
        <path id="_6_hoek-122" data-name="6 hoek" d="M75,0l25,45L75,90H25L0,45,25,0Z" transform="translate(153.745 92.303)" fill="#f0f3f4"/>
        <path id="_6_hoek-123" data-name="6 hoek" d="M75,0l25,45L75,90H25L0,45,25,0Z" transform="translate(-0.255 92.303)" fill="#f0f3f4"/>
        <path id="_6_hoek-124" data-name="6 hoek" d="M75,0l25,45L75,90H25L0,45,25,0Z" transform="translate(-0.255 644.303)" fill="#f0f3f4"/>
        <path id="_6_hoek-125" data-name="6 hoek" d="M75,0l25,45L75,90H25L0,45,25,0Z" transform="translate(153.745 644.303)" fill="#f0f3f4"/>
        <path id="_6_hoek-126" data-name="6 hoek" d="M75,0l25,45L75,90H25L0,45,25,0Z" transform="translate(461.746 644.303)" fill="#f0f3f4"/>
        <path id="_6_hoek-127" data-name="6 hoek" d="M75.75,0,101,45,75.75,90H25.25L0,45,25.25,0Z" transform="translate(615.746 644.303)" fill="#f0f3f4"/>
        <path id="_6_hoek-128" data-name="6 hoek" d="M75.75,0,101,45,75.75,90H25.25L0,45,25.25,0Z" transform="translate(615.746 368.303)" fill="#f0f3f4"/>
        <path id="_6_hoek-129" data-name="6 hoek" d="M75,0l25,45L75,90H25L0,45,25,0Z" transform="translate(461.746 92.303)" fill="#f0f3f4"/>
        <path id="_6_hoek-130" data-name="6 hoek" d="M75.75,0,101,45,75.75,90H25.25L0,45,25.25,0Z" transform="translate(615.746 92.303)" fill="#f0f3f4"/>
      </g>
      <path id="_6_hoek-131" data-name="6 hoek" d="M75,0l25,45L75,90H25L0,45,25,0Z" transform="translate(770 -183.68)" fill="#f0f3f4"/>
    </g>
  </g>
</svg>
